<?xml version="1.0" encoding="UTF-8" standalone="no"?>
<svg
   xmlns:dc="http://purl.org/dc/elements/1.1/"
   xmlns:cc="http://creativecommons.org/ns#"
   xmlns:rdf="http://www.w3.org/1999/02/22-rdf-syntax-ns#"
   xmlns:svg="http://www.w3.org/2000/svg"
   xmlns="http://www.w3.org/2000/svg"
   viewBox="0 0 925 275"
   height="275"
   width="925"
   xml:space="preserve"
   version="1.1"
   id="svg2"><metadata
     id="metadata8"><rdf:RDF><cc:Work
         rdf:about=""><dc:format>image/svg+xml</dc:format><dc:type
           rdf:resource="http://purl.org/dc/dcmitype/StillImage" /></cc:Work></rdf:RDF></metadata><defs
     id="defs6" /><g
     transform="matrix(1.25,0,0,-1.25,0,275)"
     id="g10"><g
       transform="scale(0.1,0.1)"
       id="g12"><path
         id="path14"
         style="fill:#231f20;fill-opacity:1;fill-rule:nonzero;stroke:none"
         d="m 977.695,1598.71 229.915,251.79 377.67,-344.87 -229.91,-251.79 -377.675,344.87" /><path
         id="path16"
         style="fill:#231f20;fill-opacity:1;fill-rule:nonzero;stroke:none"
         d="m 1379.45,1254.94 206.92,226.6 c 19.05,20.86 51.4,22.33 72.26,3.28 l 0,0 c 20.86,-19.05 22.33,-51.39 3.28,-72.25 l -206.92,-226.61 c -19.05,-20.85 -51.4,-22.32 -72.26,-3.28 l 0,0 c -20.86,19.05 -22.32,51.4 -3.28,72.26" /><path
         id="path18"
         style="fill:#231f20;fill-opacity:1;fill-rule:nonzero;stroke:none"
         d="m 901.07,1691.77 206.92,226.61 c 19.05,20.85 51.4,22.32 72.26,3.28 l 0,0 c 20.85,-19.05 22.32,-51.4 3.28,-72.26 L 976.602,1622.8 c -19.047,-20.86 -51.395,-22.33 -72.254,-3.28 l 0,0 c -20.856,19.05 -22.325,51.4 -3.278,72.25" /><path
         id="path20"
         style="fill:#231f20;fill-opacity:1;fill-rule:nonzero;stroke:none"
         d="m 878.641,1920.03 c 203.159,222.49 548.219,238.15 770.709,34.99 222.49,-203.16 238.15,-548.22 34.99,-770.71 -203.17,-222.49 -548.23,-238.15 -770.715,-34.99 -222.484,203.17 -238.148,548.23 -34.984,770.71 z m 881.229,-804.7 c 241.26,264.21 222.66,673.97 -41.54,915.22 -264.21,241.26 -673.97,222.66 -915.225,-41.54 -241.257,-264.21 -222.656,-673.96 41.547,-915.22 264.208,-241.259 673.958,-222.661 915.218,41.54" /><path
         id="path22"
         style="fill:#231f20;fill-opacity:1;fill-rule:nonzero;stroke:none"
         d="m 899.867,1007.85 c -23.07,16.1 -45.371,33.86 -66.711,53.35 -21.34,19.48 -41.051,40.08 -59.176,61.6 L 0,275.211 125.891,160.25 l 773.976,847.6" /><path
         id="path24"
         style="fill:#231f20;fill-opacity:1;fill-rule:nonzero;stroke:none"
         d="M 992.547,1109.34 1215.68,1353.7 1089.79,1468.65 866.656,1224.3 c 17.574,-21.95 37.051,-42.83 58.465,-62.39 21.414,-19.55 43.977,-37.06 67.426,-52.57" /><path
         id="path26"
         style="fill:#4abc39;fill-opacity:1;fill-rule:nonzero;stroke:none"
         d="m 1161.72,227.738 -11.87,-61.226 -299.713,0 107.695,555.75 72.338,0 -95.834,-494.524 227.384,0" /><path
         id="path28"
         style="fill:#4abc39;fill-opacity:1;fill-rule:nonzero;stroke:none"
         d="m 1380.27,405.711 199.46,0 1.86,9.641 c 6.32,32.597 3.34,58.539 -8.91,77.808 -12.26,19.289 -31.76,28.918 -58.5,28.918 -26.97,0 -52.21,-9.808 -75.71,-29.449 -23.5,-19.629 -42.9,-48.609 -58.2,-86.918 z m 224.86,-212.59 c -58.12,-25.141 -110.92,-37.711 -158.42,-37.711 -36.05,0 -66.54,8.942 -91.49,26.84 -24.95,17.891 -42.72,43.461 -53.34,76.73 -10.62,33.282 -12.25,68.879 -4.91,106.801 7.07,36.489 21.99,71.559 44.74,105.199 22.74,33.629 50.49,59.801 83.25,78.52 32.75,18.719 67.03,28.102 102.84,28.102 47.5,0 82.36,-16.942 104.57,-50.782 22.21,-33.84 26.49,-86.039 12.82,-156.582 l -2.78,-14.297 -275.73,0 c -5.38,-27.769 -4.5,-53.14 2.63,-76.109 7.12,-22.98 19,-40.211 35.63,-51.703 16.63,-11.481 37,-17.219 61.11,-17.219 42.97,0 93.26,14.36 150.87,43.07 l -11.79,-60.859" /><path
         id="path30"
         style="fill:#4abc39;fill-opacity:1;fill-rule:nonzero;stroke:none"
         d="m 2007.66,335.66 33.28,171.731 c -22.47,6.211 -43.87,9.32 -64.19,9.32 -41.13,0 -78.48,-15.891 -112.02,-47.691 -33.54,-31.782 -55.61,-75.051 -66.21,-129.758 -7.69,-39.692 -6.02,-69.621 5.02,-89.821 11.02,-20.203 26.11,-30.3 45.23,-30.3 20.81,0 45.8,10.519 74.99,31.55 29.18,21.039 57.15,49.36 83.9,84.969 z m -15.36,-79.23 c -26.8,-33.43 -56.12,-58.641 -87.96,-75.59 -31.86,-16.942 -59.73,-25.43 -83.63,-25.43 -33.47,0 -60.72,14.43 -81.77,43.32 -21.07,28.891 -25.9,72.7 -14.53,131.43 8.99,46.301 25.83,87.66 50.58,124.078 24.74,36.383 53.97,65.153 87.71,86.293 33.72,21.129 72.46,31.688 116.2,31.688 12.67,0 31.49,-1.321 56.47,-3.938 3.71,-0.492 9.32,-1.082 16.81,-1.793 l 66.8,0 -54.81,-282.886 c -13.05,-67.313 -21.88,-108.442 -26.5,-123.364 -4.63,-14.906 -10.4,-30.019 -17.32,-45.289 -16.42,-35.5701 -43.66,-63.617 -81.7,-84.1599 C 1900.63,10.2617 1857.48,0 1809.2,0 c -48.52,0 -95.22,12.4102 -140.11,37.25 l 13.05,67.309 c 16.38,-12.8871 37.41,-24.2895 63.1,-34.1879 25.69,-9.9023 51.45,-14.8594 77.26,-14.8594 20.32,0 40.19,3.2188 59.59,9.668 19.43,6.4414 35.93,15.7617 49.52,27.9219 13.6,12.1794 23.99,26.3284 31.17,42.4574 7.19,16.113 13.37,37.543 18.56,64.281 l 10.96,56.59" /><path
         id="path32"
         style="fill:#4abc39;fill-opacity:1;fill-rule:nonzero;stroke:none"
         d="m 2354.32,710.969 c 2.91,14.992 10.18,26.16 21.83,33.531 11.66,7.371 22,11.07 31.04,11.07 9.27,0 18.3,-3.699 27.11,-11.07 8.78,-7.371 11.74,-18.539 8.83,-33.531 -2.86,-14.731 -10.12,-25.778 -21.76,-33.16 -11.66,-7.368 -22.12,-11.047 -31.39,-11.047 -9.03,0 -17.95,3.679 -26.75,11.047 -8.8,7.382 -11.77,18.429 -8.91,33.16 z m -94.76,-544.457 66.76,344.476 -111.01,0 10.75,55.5 177.61,0 -66.75,-344.476 111.36,0 -10.76,-55.5 -177.96,0" /><path
         id="path34"
         style="fill:#4abc39;fill-opacity:1;fill-rule:nonzero;stroke:none"
         d="m 2596.32,187.641 13.66,70.539 c 23.37,-17.43 49.28,-29.668 77.75,-36.711 28.48,-7.047 53.1,-10.559 73.87,-10.559 33.66,0 58.95,5.43 75.86,16.301 16.9,10.859 26.92,24.398 30.07,40.641 2.08,10.738 0.4,19.929 -5.04,27.57 -5.45,7.637 -20.81,17.066 -46.08,28.289 l -21.12,9.309 -42.64,18.269 c -45.91,19.32 -73.71,37.231 -83.41,53.699 -9.99,16.231 -12.72,36.051 -8.19,59.442 6.39,32.941 24.36,60.039 53.94,81.289 29.57,21.242 72.93,31.883 130.06,31.883 42.78,0 82.08,-6.223 117.93,-18.641 l -11.73,-60.512 c -40.95,15.762 -80.79,23.629 -119.53,23.629 -28.21,0 -51.23,-4.949 -69.05,-14.848 -17.82,-9.921 -28.18,-22.269 -31.04,-37.058 -2.77,-14.332 1.92,-25.801 14.11,-34.383 11.95,-8.59 32.25,-18.508 60.9,-29.73 l 41.97,-16.457 c 38.44,-15.051 64.27,-31.411 77.5,-49.063 13.23,-17.668 17.27,-39.75 12.13,-66.25 -6.71,-34.609 -25.53,-63.09 -56.47,-85.398 -30.95,-22.332 -75.66,-33.481 -134.14,-33.481 -51.09,0 -101.54,10.738 -151.31,32.231" /><path
         id="path36"
         style="fill:#4abc39;fill-opacity:1;fill-rule:nonzero;stroke:none"
         d="m 3362.98,172.949 c -44.54,-15.508 -83.27,-23.258 -116.22,-23.258 -43.46,0 -81.18,11.629 -113.21,34.899 -32.01,23.281 -53.71,57.89 -65.08,103.851 -11.39,45.95 -11.47,97.938 -0.23,155.93 11.15,57.539 31.19,109.219 60.13,155.059 28.93,45.84 63.95,80.57 105.06,104.199 41.1,23.641 83.61,35.453 127.54,35.453 32.95,0 68.69,-7.703 107.23,-23.121 l -12.76,-65.891 c -34.11,22.34 -70.13,33.512 -108.09,33.512 -28.65,0 -56.75,-9.801 -84.29,-29.383 -27.55,-19.597 -52.28,-48.32 -74.17,-86.179 -21.91,-37.872 -37.16,-79.032 -45.77,-123.461 -8.75,-45.149 -9.31,-86.848 -1.68,-125.071 7.63,-38.218 21.3,-66.828 41.02,-85.816 19.71,-18.992 43.77,-28.492 72.19,-28.492 37.71,0 78.06,11.109 121.03,33.308 l -12.7,-65.539" /><path
         id="path38"
         style="fill:#4abc39;fill-opacity:1;fill-rule:nonzero;stroke:none"
         d="m 3501.75,166.512 77.51,399.976 66.6,0 -16.93,-87.379 c 27.15,32.95 55.74,57.59 85.77,73.95 30.02,16.339 61.51,24.543 94.46,24.543 24.1,0 47.49,-3.711 70.17,-11.114 l -27.96,-144.297 -64.09,0 17.69,91.309 c -10.85,1.898 -19.5,2.859 -25.95,2.859 -24.82,0 -51.08,-9.789 -78.74,-29.371 -27.66,-19.578 -56.63,-48.937 -86.89,-88.078 l -45.04,-232.398 -66.6,0" /><path
         id="path40"
         style="fill:#4abc39;fill-opacity:1;fill-rule:nonzero;stroke:none"
         d="m 4203.78,335.66 33.28,171.731 c -22.47,6.211 -43.87,9.32 -64.19,9.32 -41.13,0 -78.48,-15.891 -112.02,-47.691 -33.55,-31.782 -55.61,-75.051 -66.21,-129.758 -7.69,-39.692 -6.02,-69.621 5.02,-89.821 11.02,-20.203 26.11,-30.3 45.23,-30.3 20.81,0 45.79,10.519 74.99,31.55 29.18,21.039 57.15,49.36 83.9,84.969 z m -15.7,-79.672 c -26.76,-33.289 -56.05,-58.379 -87.85,-75.258 -31.8,-16.871 -59.64,-25.32 -83.52,-25.32 -33.44,0 -60.67,14.43 -81.69,43.32 -21.04,28.891 -25.86,72.7 -14.47,131.43 8.96,46.301 25.82,87.66 50.56,124.078 24.74,36.383 53.98,65.153 87.71,86.293 33.72,21.129 72.46,31.688 116.2,31.688 12.67,0 31.49,-1.321 56.47,-3.938 3.72,-0.492 9.32,-1.082 16.81,-1.793 l 66.81,0 -54.73,-282.449 c -9.35,-48.258 -11.81,-87.437 -7.38,-117.527 l -69.46,0 c -1.14,21.867 0.38,51.687 4.54,89.476" /><path
         id="path42"
         style="fill:#4abc39;fill-opacity:1;fill-rule:nonzero;stroke:none"
         d="m 4364.73,166.512 12.33,399.976 62.05,0 -9.17,-243.488 -0.91,-56.578 20.6,56.578 110.77,243.488 59.81,0 24.93,-243.488 1.61,-56.578 19.17,56.578 85.44,243.488 51.11,0 -142.32,-399.976 -62.31,0 -26.74,257.457 -1.21,56.582 -1.78,0 -22.01,-56.223 -116.56,-257.816 -64.81,0" /><path
         id="path44"
         style="fill:#4abc39;fill-opacity:1;fill-rule:nonzero;stroke:none"
         d="m 4895.41,166.512 101.24,522.437 -119.6,0 10.76,55.512 186.2,0 -101.24,-522.449 124.97,0 -10.76,-55.5 -191.57,0" /><path
         id="path46"
         style="fill:#4abc39;fill-opacity:1;fill-rule:nonzero;stroke:none"
         d="m 5341.03,405.711 199.45,0 1.86,9.641 c 6.32,32.597 3.34,58.539 -8.91,77.808 -12.26,19.289 -31.76,28.918 -58.5,28.918 -26.97,0 -52.21,-9.808 -75.7,-29.449 -23.51,-19.629 -42.91,-48.609 -58.2,-86.918 z m 224.85,-212.59 c -58.11,-25.141 -110.92,-37.711 -158.42,-37.711 -36.04,0 -66.53,8.942 -91.47,26.84 -24.95,17.891 -42.74,43.461 -53.35,76.73 -10.62,33.282 -12.26,68.879 -4.91,106.801 7.07,36.489 21.98,71.559 44.73,105.199 22.75,33.629 50.5,59.801 83.25,78.52 32.76,18.719 67.04,28.102 102.85,28.102 47.5,0 82.36,-16.942 104.57,-50.782 22.2,-33.84 26.48,-86.039 12.81,-156.582 l -2.78,-14.297 -275.73,0 c -5.38,-27.769 -4.5,-53.14 2.63,-76.109 7.12,-22.98 19,-40.211 35.63,-51.703 16.63,-11.481 37.01,-17.219 61.12,-17.219 42.97,0 93.25,14.36 150.87,43.07 l -11.8,-60.859" /><path
         id="path48"
         style="fill:#4abc39;fill-opacity:1;fill-rule:nonzero;stroke:none"
         d="m 5702.17,166.512 77.51,399.976 66.6,0 -16.92,-87.379 c 27.14,32.95 55.73,57.59 85.76,73.95 30.02,16.339 61.51,24.543 94.46,24.543 24.1,0 47.49,-3.711 70.17,-11.114 l -27.96,-144.297 -64.09,0 17.69,91.309 c -10.86,1.898 -19.49,2.859 -25.94,2.859 -24.84,0 -51.09,-9.789 -78.75,-29.371 -27.66,-19.578 -56.63,-48.937 -86.89,-88.078 l -45.04,-232.398 -66.6,0" /><path
         id="path50"
         style="fill:#414ba7;fill-opacity:1;fill-rule:nonzero;stroke:none"
         d="m 6269.34,149.691 c -16,0 -28.61,5.719 -37.86,17.168 -9.22,11.469 -12.3,25.192 -9.19,41.192 3.14,16.238 11.6,30.019 25.38,41.347 13.77,11.34 28.54,17.024 44.29,17.024 15.75,0 28.31,-5.684 37.7,-17.024 9.38,-11.328 12.51,-25.109 9.36,-41.347 -3.1,-16 -11.49,-29.723 -25.17,-41.192 -13.68,-11.449 -28.52,-17.168 -44.51,-17.168" /><path
         id="path52"
         style="fill:#c2bb17;fill-opacity:1;fill-rule:nonzero;stroke:none"
         d="m 6654.64,397.332 -33.28,-171.73 c 22.91,-6.211 44.51,-9.313 64.8,-9.313 40.33,0 77.37,15.832 111.09,47.492 33.7,31.668 55.88,74.989 66.54,129.969 7.73,39.91 6.02,69.91 -5.13,89.98 -11.14,20.079 -26.27,30.122 -45.37,30.122 -20.77,0 -45.67,-10.524 -74.69,-31.563 -29.02,-21.027 -57.01,-49.348 -83.96,-84.957 z m 15.35,79.227 c 27,33.441 56.36,58.64 88.06,75.601 31.69,16.949 59.48,25.442 83.35,25.442 33.42,0 60.7,-14.461 81.84,-43.34 21.14,-28.891 26.02,-72.692 14.64,-131.422 -8.97,-46.309 -25.89,-87.668 -50.72,-124.07 -24.85,-36.411 -54.11,-65.168 -87.8,-86.301 -33.71,-21.129 -72.39,-31.688 -116.08,-31.688 -12.41,0 -31.26,1.321 -56.53,3.938 -3.73,0.472 -9.35,1.07 -16.85,1.793 l -66.6,0 112,577.949 66.6,0 -51.91,-267.902" /><path
         id="path54"
         style="fill:#c2bb17;fill-opacity:1;fill-rule:nonzero;stroke:none"
         d="m 7022.42,166.512 77.51,399.976 66.6,0 -16.92,-87.379 c 27.15,32.95 55.73,57.59 85.76,73.95 30.02,16.339 61.51,24.543 94.46,24.543 24.1,0 47.49,-3.711 70.17,-11.114 l -27.96,-144.297 -64.09,0 17.69,91.309 c -10.86,1.898 -19.49,2.859 -25.93,2.859 -24.85,0 -51.1,-9.789 -78.75,-29.371 -27.67,-19.578 -56.63,-48.937 -86.9,-88.078 l -45.04,-232.398 -66.6,0" /></g></g></svg>